<?xml version="1.0" encoding="UTF-8"?>
<!DOCTYPE svg PUBLIC "-//W3C//DTD SVG 1.1//EN" "http://www.w3.org/Graphics/SVG/1.1/DTD/svg11.dtd">
<svg xmlns="http://www.w3.org/2000/svg" version="1.1" width="891px" height="433px" style="shape-rendering:geometricPrecision; text-rendering:geometricPrecision; image-rendering:optimizeQuality; fill-rule:evenodd; clip-rule:evenodd" xmlns:xlink="http://www.w3.org/1999/xlink">
<g><path style="opacity:0.502" fill="#752cc3" d="M 184.5,0.5 C 419.667,0.166904 654.667,0.500237 889.5,1.5C 888.833,9.83333 888.167,18.1667 887.5,26.5C 887.5,18.1667 887.5,9.83333 887.5,1.5C 652.999,1.8331 418.666,1.49976 184.5,0.5 Z"/></g>
<g><path style="opacity:0.999" fill="#6615bf" d="M 184.5,0.5 C 418.666,1.49976 652.999,1.8331 887.5,1.5C 887.5,9.83333 887.5,18.1667 887.5,26.5C 652.999,26.1669 418.666,26.5002 184.5,27.5C 183.167,18.5 183.167,9.5 184.5,0.5 Z"/></g>
<g><path style="opacity:1" fill="#e2dfe4" d="M 204.5,9.5 C 212.061,8.85964 214.061,11.693 210.5,18C 202.749,19.0913 200.749,16.258 204.5,9.5 Z"/></g>
<g><path style="opacity:1" fill="#e2dfe4" d="M 225.5,9.5 C 233.061,8.85964 235.061,11.693 231.5,18C 223.749,19.0913 221.749,16.258 225.5,9.5 Z"/></g>
<g><path style="opacity:1" fill="#e0dce4" d="M 246.5,9.5 C 248.989,9.29777 251.323,9.79777 253.5,11C 256.192,13.6324 255.859,15.9658 252.5,18C 244.749,19.0913 242.749,16.258 246.5,9.5 Z"/></g>
<g><path style="opacity:0.993" fill="#e5e5e5" d="M 889.5,1.5 C 889.5,130.833 889.5,260.167 889.5,389.5C 730.833,389.5 572.167,389.5 413.5,389.5C 414.584,375.085 416.417,360.752 419,346.5C 419.5,335.172 419.667,323.838 419.5,312.5C 420.804,303.147 422.304,293.813 424,284.5C 424.578,281.428 425.745,278.761 427.5,276.5C 451.994,277.498 476.661,277.831 501.5,277.5C 501.5,202.833 501.5,128.167 501.5,53.5C 416.833,53.5 332.167,53.5 247.5,53.5C 247.5,128.167 247.5,202.833 247.5,277.5C 290.5,277.5 333.5,277.5 376.5,277.5C 376.5,276.167 376.5,274.833 376.5,273.5C 380.089,287.136 382.422,301.136 383.5,315.5C 379.476,332.284 377.142,349.284 376.5,366.5C 376.444,371.731 377.111,376.731 378.5,381.5C 378.806,384.385 378.473,387.052 377.5,389.5C 320.833,389.5 264.167,389.5 207.5,389.5C 206.834,386.642 206.167,383.642 205.5,380.5C 203.885,379.846 202.218,379.346 200.5,379C 196.812,375.312 193.145,371.645 189.5,368C 193.519,353.392 196.519,338.559 198.5,323.5C 203.064,321.396 205.397,317.73 205.5,312.5C 206.965,294.298 204.632,276.631 198.5,259.5C 193.452,258.051 188.785,256.051 184.5,253.5C 184.5,178.167 184.5,102.833 184.5,27.5C 418.666,26.5002 652.999,26.1669 887.5,26.5C 888.167,18.1667 888.833,9.83333 889.5,1.5 Z"/></g>
<g><path style="opacity:1" fill="#fefefe" d="M 427.5,276.5 C 432.79,272.22 438.123,267.887 443.5,263.5C 447.049,254.421 449.716,245.088 451.5,235.5C 451.724,231.821 452.058,228.154 452.5,224.5C 456.167,224.5 459.833,224.5 463.5,224.5C 463.5,222.167 463.5,219.833 463.5,217.5C 404.5,217.5 345.5,217.5 286.5,217.5C 286.5,219.833 286.5,222.167 286.5,224.5C 307.167,224.5 327.833,224.5 348.5,224.5C 349.486,228.443 350.152,232.443 350.5,236.5C 350.167,236.5 349.833,236.5 349.5,236.5C 348.566,237.568 348.232,238.901 348.5,240.5C 328.167,240.5 307.833,240.5 287.5,240.5C 287.5,242.5 287.5,244.5 287.5,246.5C 309.242,246.178 330.909,246.512 352.5,247.5C 354.833,251.513 356.666,255.846 358,260.5C 364.283,264.72 370.45,269.053 376.5,273.5C 376.5,274.833 376.5,276.167 376.5,277.5C 333.5,277.5 290.5,277.5 247.5,277.5C 247.5,202.833 247.5,128.167 247.5,53.5C 332.167,53.5 416.833,53.5 501.5,53.5C 501.5,128.167 501.5,202.833 501.5,277.5C 476.661,277.831 451.994,277.498 427.5,276.5 Z"/></g>
<g><path style="opacity:1" fill="#fefefe" d="M 596.5,57.5 C 681.167,57.5 765.833,57.5 850.5,57.5C 850.5,148.5 850.5,239.5 850.5,330.5C 765.833,330.5 681.167,330.5 596.5,330.5C 596.5,239.5 596.5,148.5 596.5,57.5 Z"/></g>
<g><path style="opacity:1" fill="#4b4961" d="M 673.5,73.5 C 706.835,73.3333 740.168,73.5 773.5,74C 781.683,75.8651 787.85,80.3651 792,87.5C 793.333,106.104 794.166,124.77 794.5,143.5C 793.728,194.829 793.228,246.162 793,297.5C 789.626,306.615 783.126,312.115 773.5,314C 740.167,314.667 706.833,314.667 673.5,314C 666.244,312.068 660.744,307.901 657,301.5C 655.343,230.557 655.01,159.557 656,88.5C 659.782,81.0369 665.616,76.0369 673.5,73.5 Z"/></g>
<g><path style="opacity:1" fill="#fdfdfe" d="M 672.5,79.5 C 678.167,79.5 683.833,79.5 689.5,79.5C 688.943,83.8884 690.61,87.0551 694.5,89C 713.167,89.6667 731.833,89.6667 750.5,89C 755.866,88.1107 758.199,84.944 757.5,79.5C 764.241,79.1712 770.908,79.6712 777.5,81C 781,83.1667 783.833,86 786,89.5C 786.667,158.833 786.667,228.167 786,297.5C 783.768,302.731 779.935,306.231 774.5,308C 740.167,308.667 705.833,308.667 671.5,308C 665.836,305.668 662.336,301.501 661,295.5C 660.333,227.5 660.333,159.5 661,91.5C 663.019,85.6498 666.852,81.6498 672.5,79.5 Z"/></g>
<g><path style="opacity:1" fill="#7129c3" d="M 415.5,105.5 C 417.5,105.5 419.5,105.5 421.5,105.5C 421.832,118.184 421.499,130.851 420.5,143.5C 419.281,142.737 418.281,141.737 417.5,140.5C 406.296,146.036 399.962,142.37 398.5,129.5C 398.783,121.723 402.617,116.723 410,114.5C 411.982,114.99 413.649,115.99 415,117.5C 415.499,113.514 415.666,109.514 415.5,105.5 Z"/></g>
<g><path style="opacity:1" fill="#7129c3" d="M 353.5,106.5 C 359.547,106.444 364.047,109.111 367,114.5C 368.391,124.1 368.891,133.767 368.5,143.5C 366.5,143.5 364.5,143.5 362.5,143.5C 362.5,141.167 362.5,138.833 362.5,136.5C 358.5,136.5 354.5,136.5 350.5,136.5C 350.5,138.833 350.5,141.167 350.5,143.5C 348.5,143.5 346.5,143.5 344.5,143.5C 344.334,134.827 344.5,126.16 345,117.5C 346.553,112.788 349.386,109.121 353.5,106.5 Z"/></g>
<g><path style="opacity:1" fill="#7128c3" d="M 379.5,106.5 C 381.5,106.5 383.5,106.5 385.5,106.5C 385.666,115.506 385.5,124.506 385,133.5C 383.108,140.519 378.608,143.686 371.5,143C 370.565,140.619 370.232,138.119 370.5,135.5C 374.49,136.384 377.323,135.051 379,131.5C 379.5,123.173 379.666,114.84 379.5,106.5 Z"/></g>
<g><path style="opacity:1" fill="#f8f4fc" d="M 353.5,114.5 C 356.365,114.055 358.865,114.722 361,116.5C 362.354,120.363 362.854,124.363 362.5,128.5C 358.5,128.5 354.5,128.5 350.5,128.5C 349.803,123.36 350.803,118.693 353.5,114.5 Z"/></g>
<g><path style="opacity:1" fill="#6c21c1" d="M 430.5,115.5 C 433.518,115.335 436.518,115.502 439.5,116C 441.833,117 443.5,118.667 444.5,121C 441.167,126 437.833,131 434.5,136C 435.5,136.667 436.5,136.667 437.5,136C 438.354,134.978 439.354,134.145 440.5,133.5C 441.941,134.865 443.274,136.365 444.5,138C 440.581,143.463 435.581,144.796 429.5,142C 424.854,136.689 423.354,130.523 425,123.5C 426.273,120.403 428.107,117.736 430.5,115.5 Z"/></g>
<g><path style="opacity:1" fill="#b892e1" d="M 451.5,116.5 C 449.265,116.205 447.265,116.539 445.5,117.5C 444.957,117.44 444.624,117.107 444.5,116.5C 446.973,115.203 449.307,115.203 451.5,116.5 Z"/></g>
<g><path style="opacity:1" fill="#6e24c2" d="M 445.5,117.5 C 447.265,116.539 449.265,116.205 451.5,116.5C 452.685,121.904 454.185,127.237 456,132.5C 457.189,127.077 458.689,121.744 460.5,116.5C 462.396,115.534 464.396,115.201 466.5,115.5C 464.311,124.236 461.811,132.903 459,141.5C 457.246,143.25 455.079,143.917 452.5,143.5C 450.576,134.726 448.242,126.06 445.5,117.5 Z"/></g>
<g><path style="opacity:1" fill="#f9f6fc" d="M 407.5,122.5 C 414.314,122.49 416.814,125.823 415,132.5C 411.667,137.833 408.333,137.833 405,132.5C 403.861,128.579 404.695,125.246 407.5,122.5 Z"/></g>
<g><path style="opacity:1" fill="#efe6f8" d="M 432.5,122.5 C 433.873,122.343 435.207,122.51 436.5,123C 434.375,126.082 432.375,129.249 430.5,132.5C 429.018,128.727 429.684,125.393 432.5,122.5 Z"/></g>
<g><path style="opacity:1" fill="#8242ca" d="M 298.5,108.5 C 300.199,108.34 301.866,108.506 303.5,109C 305.977,110.643 308.31,112.476 310.5,114.5C 312.637,113.262 313.971,111.429 314.5,109C 317.429,108.223 320.263,108.39 323,109.5C 323.767,113.558 323.6,117.558 322.5,121.5C 337.082,126.518 337.082,131.184 322.5,135.5C 322.888,137.685 323.888,139.518 325.5,141C 324.209,143.371 323.209,145.871 322.5,148.5C 321.554,148.987 320.554,149.32 319.5,149.5C 315.981,148.32 312.981,146.32 310.5,143.5C 298.668,153.346 294.335,150.68 297.5,135.5C 295.488,136.014 293.488,136.18 291.5,136C 284.828,127.971 286.828,123.471 297.5,122.5C 297.495,119.468 297.162,116.468 296.5,113.5C 296.437,111.486 297.103,109.819 298.5,108.5 Z"/></g>
<g><path style="opacity:1" fill="#c9aae8" d="M 301.5,131.5 C 304.085,132.465 304.585,133.799 303,135.5C 300.256,134.939 299.756,133.606 301.5,131.5 Z"/></g>
<g><path style="opacity:1" fill="#e4d6f4" d="M 317.5,131.5 C 319.048,131.821 319.715,132.821 319.5,134.5C 318.448,134.649 317.448,134.483 316.5,134C 317.252,133.329 317.586,132.496 317.5,131.5 Z"/></g>
<g><path style="opacity:1" fill="#f9f6fc" d="M 321.5,123.5 C 324.179,124.226 326.846,125.059 329.5,126C 332.475,129.716 331.475,132.049 326.5,133C 322.558,134.418 320.225,133.084 319.5,129C 320.32,127.2 320.986,125.366 321.5,123.5 Z"/></g>
<g><path style="opacity:1" fill="#e7d9f4" d="M 316.5,122.5 C 317.5,122.5 318.5,122.5 319.5,122.5C 318.754,126.31 317.754,126.31 316.5,122.5 Z"/></g>
<g><path style="opacity:1" fill="#dfcef2" d="M 300.5,122.5 C 305.208,122.008 305.708,123.341 302,126.5C 301.209,125.255 300.709,123.922 300.5,122.5 Z"/></g>
<g><path style="opacity:1" fill="#f6f1fb" d="M 295.5,123.5 C 296.833,123.5 298.167,123.5 299.5,123.5C 300.577,126.526 300.577,129.526 299.5,132.5C 298.833,132.833 298.167,133.167 297.5,133.5C 294.231,132.442 291.231,130.942 288.5,129C 290.444,126.692 292.777,124.859 295.5,123.5 Z"/></g>
<g><path style="opacity:1" fill="#f4eefa" d="M 306.5,122.5 C 312.279,121.336 315.945,123.502 317.5,129C 315.679,134.92 311.846,136.754 306,134.5C 304.888,132.61 304.054,130.61 303.5,128.5C 304.489,126.506 305.489,124.506 306.5,122.5 Z"/></g>
<g><path style="opacity:1" fill="#7833c6" d="M 308.5,125.5 C 313.241,125.161 314.574,127.161 312.5,131.5C 306.787,132.452 305.454,130.452 308.5,125.5 Z"/></g>
<g><path style="opacity:1" fill="#efe6f8" d="M 309.5,118.5 C 310.756,118.461 311.756,118.961 312.5,120C 311.167,120.667 309.833,120.667 308.5,120C 309.056,119.617 309.389,119.117 309.5,118.5 Z"/></g>
<g><path style="opacity:1" fill="#f4effa" d="M 318.5,109.5 C 321.121,109.477 322.455,110.811 322.5,113.5C 320.947,122.686 317.281,123.686 311.5,116.5C 312.722,114.022 314.722,113.022 317.5,113.5C 317.433,112.041 317.766,110.708 318.5,109.5 Z"/></g>
<g><path style="opacity:1" fill="#f6f1fb" d="M 299.5,109.5 C 303.288,110.898 306.621,113.065 309.5,116C 308.167,117.667 306.833,119.333 305.5,121C 303.527,121.495 301.527,121.662 299.5,121.5C 298.436,117.441 298.436,113.441 299.5,109.5 Z"/></g>
<g><path style="opacity:1" fill="#faf7fc" d="M 299.5,136.5 C 308.939,137.193 310.272,140.693 303.5,147C 301.866,147.494 300.199,147.66 298.5,147.5C 298.552,143.802 298.886,140.135 299.5,136.5 Z"/></g>
<g><path style="opacity:1" fill="#f5effa" d="M 314.5,136.5 C 316.833,136.5 319.167,136.5 321.5,136.5C 321.481,138.06 321.148,139.56 320.5,141C 323.699,147.136 322.032,148.803 315.5,146C 313.981,144.649 312.648,143.149 311.5,141.5C 312.763,139.971 313.763,138.305 314.5,136.5 Z"/></g>
<g><path style="opacity:1" fill="#6f25c2" d="M 390.5,136.5 C 396.452,136.609 397.786,139.109 394.5,144C 392.888,144.72 391.388,144.554 390,143.5C 389.297,141.071 389.463,138.738 390.5,136.5 Z"/></g>
<g><path style="opacity:1" fill="#ceb3ea" d="M 308.5,136.5 C 309.978,136.238 311.311,136.571 312.5,137.5C 310.537,140.194 309.203,139.861 308.5,136.5 Z"/></g>
<g><path style="opacity:1" fill="#732ac4" d="M 707.5,130.5 C 709.527,130.338 711.527,130.505 713.5,131C 717.258,132.923 720.591,135.423 723.5,138.5C 725.668,136.367 727.334,133.867 728.5,131C 732.167,130.333 735.833,130.333 739.5,131C 740,131.5 740.5,132 741,132.5C 741.181,137.907 741.348,143.24 741.5,148.5C 744.539,149.569 747.539,150.735 750.5,152C 755.31,155.355 755.644,159.021 751.5,163C 748.107,165.076 744.44,166.242 740.5,166.5C 740.707,169.239 741.707,171.573 743.5,173.5C 742.079,176.659 741.079,179.993 740.5,183.5C 736.815,186.076 733.149,185.91 729.5,183C 727.65,180.982 725.65,179.149 723.5,177.5C 707.84,190.49 702.173,186.823 706.5,166.5C 704.09,167.063 701.757,167.563 699.5,168C 688.824,157.397 691.157,150.897 706.5,148.5C 706.137,145.011 705.804,141.511 705.5,138C 705.303,135.176 705.969,132.676 707.5,130.5 Z"/></g>
<g><path style="opacity:1" fill="#ddcbf0" d="M 712.5,161.5 C 715.347,163.798 715.013,165.131 711.5,165.5C 711.433,164.041 711.766,162.708 712.5,161.5 Z"/></g>
<g><path style="opacity:1" fill="#f8f4fc" d="M 738.5,151.5 C 754.986,154.725 755.486,159.058 740,164.5C 736.108,160.587 735.608,156.253 738.5,151.5 Z"/></g>
<g><path style="opacity:1" fill="#e8dbf5" d="M 732.5,150.5 C 735.548,150.494 736.048,151.494 734,153.5C 732.961,152.756 732.461,151.756 732.5,150.5 Z"/></g>
<g><path style="opacity:1" fill="#e7daf5" d="M 711.5,150.5 C 714.548,150.494 715.048,151.494 713,153.5C 711.961,152.756 711.461,151.756 711.5,150.5 Z"/></g>
<g><path style="opacity:1" fill="#f7f3fb" d="M 704.5,151.5 C 708.243,151.594 710.243,153.594 710.5,157.5C 709.927,164.752 707.261,165.919 702.5,161C 700.5,160.667 698.5,160.333 696.5,160C 695.14,158.062 695.473,156.396 697.5,155C 699.925,153.787 702.259,152.621 704.5,151.5 Z"/></g>
<g><path style="opacity:1" fill="#f8f4fc" d="M 718.5,149.5 C 726.101,147.756 730.768,150.589 732.5,158C 730.19,165.382 725.357,167.549 718,164.5C 716.953,162.238 715.787,160.071 714.5,158C 716.079,155.263 717.412,152.429 718.5,149.5 Z"/></g>
<g><path style="opacity:1" fill="#ede4f7" d="M 722.5,144.5 C 723.756,144.461 724.756,144.961 725.5,146C 724.167,146.667 722.833,146.667 721.5,146C 722.056,145.617 722.389,145.117 722.5,144.5 Z"/></g>
<g><path style="opacity:1" fill="#f7f3fc" d="M 734.5,133.5 C 735.833,133.5 737.167,133.5 738.5,133.5C 738.563,138.203 738.229,142.87 737.5,147.5C 731.676,148.557 727.676,146.391 725.5,141C 727.424,139.095 729.757,137.928 732.5,137.5C 733.705,136.423 734.372,135.09 734.5,133.5 Z"/></g>
<g><path style="opacity:1" fill="#f8f3fc" d="M 708.5,133.5 C 713.938,133.891 718.271,136.391 721.5,141C 719.324,146.391 715.324,148.557 709.5,147.5C 708.873,142.859 708.54,138.193 708.5,133.5 Z"/></g>
<g><path style="opacity:1" fill="#ddc9f0" d="M 733.5,161.5 C 735.104,162.287 735.771,163.62 735.5,165.5C 734.325,165.719 733.325,165.386 732.5,164.5C 733.127,163.583 733.461,162.583 733.5,161.5 Z"/></g>
<g><path style="opacity:1" fill="#f8f4fc" d="M 709.5,168.5 C 712.187,168.336 714.854,168.503 717.5,169C 718.64,170.973 719.973,172.807 721.5,174.5C 710.314,186.772 706.314,184.772 709.5,168.5 Z"/></g>
<g><path style="opacity:1" fill="#f6f1fb" d="M 729.5,168.5 C 732.167,168.5 734.833,168.5 737.5,168.5C 737.38,170.199 737.046,171.865 736.5,173.5C 740.262,182.901 737.929,184.735 729.5,179C 727.981,177.649 726.648,176.149 725.5,174.5C 727.252,172.754 728.585,170.754 729.5,168.5 Z"/></g>
<g><path style="opacity:1" fill="#ddcaf0" d="M 721.5,168.5 C 722.978,168.238 724.311,168.571 725.5,169.5C 723.537,172.194 722.203,171.861 721.5,168.5 Z"/></g>
<g><path style="opacity:1" fill="#e6e6e6" d="M 287.5,195.5 C 345.833,195.5 404.167,195.5 462.5,195.5C 462.5,197.5 462.5,199.5 462.5,201.5C 404.167,201.5 345.833,201.5 287.5,201.5C 287.5,199.5 287.5,197.5 287.5,195.5 Z"/></g>
<g><path style="opacity:1" fill="#e6e6e6" d="M 673.5,210.5 C 707.833,210.5 742.167,210.5 776.5,210.5C 776.5,212.833 776.5,215.167 776.5,217.5C 742.167,217.5 707.833,217.5 673.5,217.5C 673.5,215.167 673.5,212.833 673.5,210.5 Z"/></g>
<g><path style="opacity:1" fill="#6818bf" d="M 452.5,224.5 C 453.445,219.105 451.445,217.439 446.5,219.5C 445.544,221.075 444.877,222.742 444.5,224.5C 415.167,224.5 385.833,224.5 356.5,224.5C 355.359,219.672 352.859,218.672 349,221.5C 348.517,222.448 348.351,223.448 348.5,224.5C 327.833,224.5 307.167,224.5 286.5,224.5C 286.5,222.167 286.5,219.833 286.5,217.5C 345.5,217.5 404.5,217.5 463.5,217.5C 463.5,219.833 463.5,222.167 463.5,224.5C 459.833,224.5 456.167,224.5 452.5,224.5 Z"/></g>
<g><path style="opacity:1" fill="#fbb8bb" d="M 452.5,224.5 C 452.058,228.154 451.724,231.821 451.5,235.5C 449.254,234.545 446.921,233.878 444.5,233.5C 444.5,230.5 444.5,227.5 444.5,224.5C 444.877,222.742 445.544,221.075 446.5,219.5C 451.445,217.439 453.445,219.105 452.5,224.5 Z"/></g>
<g><path style="opacity:1" fill="#fbb6b9" d="M 356.5,224.5 C 356.5,227.833 356.5,231.167 356.5,234.5C 354.421,234.971 352.421,235.637 350.5,236.5C 350.152,232.443 349.486,228.443 348.5,224.5C 348.351,223.448 348.517,222.448 349,221.5C 352.859,218.672 355.359,219.672 356.5,224.5 Z"/></g>
<g><path style="opacity:1" fill="#faf9fa" d="M 356.5,224.5 C 385.833,224.5 415.167,224.5 444.5,224.5C 444.5,227.5 444.5,230.5 444.5,233.5C 441.785,241.266 438.785,248.932 435.5,256.5C 430.5,259 425.5,261.5 420.5,264C 415.788,265.324 412.122,264.158 409.5,260.5C 409.433,259.041 409.766,257.708 410.5,256.5C 411.15,252.86 412.65,249.527 415,246.5C 415.387,235.909 410.22,231.743 399.5,234C 394.913,238.228 393.413,243.394 395,249.5C 396.411,251.65 397.245,253.984 397.5,256.5C 397.5,257.833 397.5,259.167 397.5,260.5C 397.468,262.567 396.468,263.9 394.5,264.5C 386.015,262.765 378.015,259.598 370.5,255C 365.579,248.263 360.913,241.429 356.5,234.5C 356.5,231.167 356.5,227.833 356.5,224.5 Z"/></g>
<g><path style="opacity:0.866" fill="#312f42" d="M 177.5,247.5 C 177.131,241.131 173.798,237.798 167.5,237.5C 160.303,237.252 155.969,240.585 154.5,247.5C 151.249,242.881 150.749,237.881 153,232.5C 154.952,230.106 157.452,228.606 160.5,228C 163.627,227.608 166.627,226.775 169.5,225.5C 170.736,226.246 172.07,226.579 173.5,226.5C 174.264,229.787 176.097,232.454 179,234.5C 179.939,239.136 179.439,243.469 177.5,247.5 Z"/></g>
<g><path style="opacity:1" fill="#e6e6e6" d="M 673.5,231.5 C 707.833,231.5 742.167,231.5 776.5,231.5C 776.5,233.833 776.5,236.167 776.5,238.5C 742.167,238.5 707.833,238.5 673.5,238.5C 673.5,236.167 673.5,233.833 673.5,231.5 Z"/></g>
<g><path style="opacity:1" fill="#333144" d="M 410.5,256.5 C 406.167,256.5 401.833,256.5 397.5,256.5C 397.245,253.984 396.411,251.65 395,249.5C 393.413,243.394 394.913,238.228 399.5,234C 410.22,231.743 415.387,235.909 415,246.5C 412.65,249.527 411.15,252.86 410.5,256.5 Z"/></g>
<g><path style="opacity:1" fill="#595b8a" d="M 444.5,233.5 C 446.921,233.878 449.254,234.545 451.5,235.5C 449.716,245.088 447.049,254.421 443.5,263.5C 438.123,267.887 432.79,272.22 427.5,276.5C 425.745,278.761 424.578,281.428 424,284.5C 422.304,293.813 420.804,303.147 419.5,312.5C 411.91,317.526 403.577,319.359 394.5,318C 390.836,316.998 387.669,315.164 385,312.5C 384.768,313.737 384.268,314.737 383.5,315.5C 382.422,301.136 380.089,287.136 376.5,273.5C 370.45,269.053 364.283,264.72 358,260.5C 356.666,255.846 354.833,251.513 352.5,247.5C 351.2,243.904 350.2,240.237 349.5,236.5C 349.833,236.5 350.167,236.5 350.5,236.5C 352.421,235.637 354.421,234.971 356.5,234.5C 360.913,241.429 365.579,248.263 370.5,255C 378.015,259.598 386.015,262.765 394.5,264.5C 396.468,263.9 397.468,262.567 397.5,260.5C 401.452,259.322 405.452,259.322 409.5,260.5C 412.122,264.158 415.788,265.324 420.5,264C 425.5,261.5 430.5,259 435.5,256.5C 438.785,248.932 441.785,241.266 444.5,233.5 Z"/></g>
<g><path style="opacity:0.962" fill="#fab5b5" d="M 177.5,247.5 C 177.443,248.609 177.11,249.609 176.5,250.5C 174.787,251.635 174.12,253.302 174.5,255.5C 173.243,258.096 172.076,260.763 171,263.5C 167.667,260.998 164.501,258.332 161.5,255.5C 161.167,255.5 160.833,255.5 160.5,255.5C 158.122,253.122 156.122,250.455 154.5,247.5C 155.969,240.585 160.303,237.252 167.5,237.5C 173.798,237.798 177.131,241.131 177.5,247.5 Z"/></g>
<g><path style="opacity:1" fill="#e4e4e5" d="M 349.5,236.5 C 350.2,240.237 351.2,243.904 352.5,247.5C 330.909,246.512 309.242,246.178 287.5,246.5C 287.5,244.5 287.5,242.5 287.5,240.5C 307.833,240.5 328.167,240.5 348.5,240.5C 348.232,238.901 348.566,237.568 349.5,236.5 Z"/></g>
<g><path style="opacity:0.944" fill="#312f42" d="M 176.5,250.5 C 178.936,251.871 181.603,252.871 184.5,253.5C 188.785,256.051 193.452,258.051 198.5,259.5C 204.632,276.631 206.965,294.298 205.5,312.5C 203.08,312.292 200.747,312.626 198.5,313.5C 197.249,316.874 197.249,320.207 198.5,323.5C 196.519,338.559 193.519,353.392 189.5,368C 193.145,371.645 196.812,375.312 200.5,379C 202.218,379.346 203.885,379.846 205.5,380.5C 206.167,383.642 206.834,386.642 207.5,389.5C 208.673,394.513 208.673,399.513 207.5,404.5C 206.183,404.821 204.849,405.154 203.5,405.5C 201.823,404.813 200.156,404.146 198.5,403.5C 195.654,399.299 193.988,394.632 193.5,389.5C 194.303,388.577 194.47,387.577 194,386.5C 191.333,384.5 188.667,382.5 186,380.5C 184.731,381.905 184.231,383.571 184.5,385.5C 181.456,390.662 179.789,396.328 179.5,402.5C 178.869,404.934 177.869,407.268 176.5,409.5C 174.5,409.5 172.5,409.5 170.5,409.5C 167.829,407.653 166.829,404.986 167.5,401.5C 171.051,391.811 172.884,381.811 173,371.5C 168.348,368.514 164.348,364.847 161,360.5C 159.97,356.227 159.303,351.894 159,347.5C 158.667,337.833 158.333,328.167 158,318.5C 156.045,317.547 154.378,316.213 153,314.5C 151.868,306.518 150.868,298.518 150,290.5C 147.959,294.084 145.792,297.584 143.5,301C 136.874,305.957 130.54,311.291 124.5,317C 122.735,317.64 121.068,317.473 119.5,316.5C 118.833,313.833 117.167,312.167 114.5,311.5C 119.691,303.798 125.858,296.798 133,290.5C 136.057,282.054 139.39,273.721 143,265.5C 148.807,262.017 154.64,258.683 160.5,255.5C 160.833,255.5 161.167,255.5 161.5,255.5C 162.267,265.815 162.601,276.148 162.5,286.5C 162.208,297.046 162.875,307.379 164.5,317.5C 170.133,319.054 175.799,319.387 181.5,318.5C 182.041,316.465 182.708,314.465 183.5,312.5C 186.987,318.786 190.987,319.119 195.5,313.5C 188.864,293.916 181.864,274.582 174.5,255.5C 174.12,253.302 174.787,251.635 176.5,250.5 Z M 184.5,385.5 C 184.5,386.833 184.5,388.167 184.5,389.5C 187.5,389.5 190.5,389.5 193.5,389.5C 193.988,394.632 195.654,399.299 198.5,403.5C 192.19,402.81 185.857,402.476 179.5,402.5C 179.789,396.328 181.456,390.662 184.5,385.5 Z"/></g>
<g><path style="opacity:1" fill="#e6e6e6" d="M 673.5,253.5 C 707.833,253.5 742.167,253.5 776.5,253.5C 776.5,255.833 776.5,258.167 776.5,260.5C 742.167,260.5 707.833,260.5 673.5,260.5C 673.5,258.167 673.5,255.833 673.5,253.5 Z"/></g>
<g><path style="opacity:1" fill="#ecadb1" d="M 397.5,256.5 C 401.833,256.5 406.167,256.5 410.5,256.5C 409.766,257.708 409.433,259.041 409.5,260.5C 405.452,259.322 401.452,259.322 397.5,260.5C 397.5,259.167 397.5,257.833 397.5,256.5 Z"/></g>
<g><path style="opacity:1" fill="#ccc8dc" d="M 161.5,255.5 C 164.501,258.332 167.667,260.998 171,263.5C 172.076,260.763 173.243,258.096 174.5,255.5C 181.864,274.582 188.864,293.916 195.5,313.5C 190.987,319.119 186.987,318.786 183.5,312.5C 182.708,314.465 182.041,316.465 181.5,318.5C 175.799,319.387 170.133,319.054 164.5,317.5C 164.306,306.984 163.639,296.651 162.5,286.5C 162.601,276.148 162.267,265.815 161.5,255.5 Z"/></g>
<g><path style="opacity:1" fill="#6d6b7f" d="M 162.5,286.5 C 163.639,296.651 164.306,306.984 164.5,317.5C 162.875,307.379 162.208,297.046 162.5,286.5 Z"/></g>
<g><path style="opacity:0.777" fill="#fdb8b8" d="M 114.5,311.5 C 117.167,312.167 118.833,313.833 119.5,316.5C 117.632,317.263 115.965,318.263 114.5,319.5C 111.5,319.5 108.5,319.5 105.5,319.5C 104.251,317.171 104.918,315.338 107.5,314C 109.65,312.589 111.984,311.755 114.5,311.5 Z"/></g>
<g><path style="opacity:1" fill="#f4b4b5" d="M 205.5,312.5 C 205.397,317.73 203.064,321.396 198.5,323.5C 197.249,320.207 197.249,316.874 198.5,313.5C 200.747,312.626 203.08,312.292 205.5,312.5 Z"/></g>
<g><path style="opacity:0.976" fill="#323143" d="M 419.5,312.5 C 419.667,323.838 419.5,335.172 419,346.5C 416.417,360.752 414.584,375.085 413.5,389.5C 412.74,394.82 412.073,400.153 411.5,405.5C 409.792,407.718 407.792,409.884 405.5,412C 403.19,412.497 400.857,412.663 398.5,412.5C 399.01,409.612 398.344,407.279 396.5,405.5C 396.569,400.146 396.902,394.813 397.5,389.5C 399.045,388.77 399.878,387.437 400,385.5C 402.162,370.069 401.828,354.736 399,339.5C 395.608,347.009 392.608,354.675 390,362.5C 389.625,371.505 389.792,380.505 390.5,389.5C 391.336,394.838 392.336,400.172 393.5,405.5C 392.883,405.611 392.383,405.944 392,406.5C 391.501,410.152 391.335,413.818 391.5,417.5C 390.351,421.003 387.851,422.669 384,422.5C 380.113,422.986 378.28,421.319 378.5,417.5C 379.833,413.5 379.833,409.5 378.5,405.5C 378.676,400.12 378.342,394.787 377.5,389.5C 378.473,387.052 378.806,384.385 378.5,381.5C 378.556,376.269 377.889,371.269 376.5,366.5C 377.142,349.284 379.476,332.284 383.5,315.5C 384.268,314.737 384.768,313.737 385,312.5C 387.669,315.164 390.836,316.998 394.5,318C 403.577,319.359 411.91,317.526 419.5,312.5 Z M 390.5,389.5 C 392.833,389.5 395.167,389.5 397.5,389.5C 396.902,394.813 396.569,400.146 396.5,405.5C 395.5,405.5 394.5,405.5 393.5,405.5C 392.336,400.172 391.336,394.838 390.5,389.5 Z"/></g>
<g><path style="opacity:0.979" fill="#6615bf" d="M 105.5,319.5 C 108.5,319.5 111.5,319.5 114.5,319.5C 125.5,319.5 136.5,319.5 147.5,319.5C 147.5,346.833 147.5,374.167 147.5,401.5C 100.032,403.187 52.3653,404.187 4.5,404.5C 4.5,376.167 4.5,347.833 4.5,319.5C 38.1667,319.5 71.8333,319.5 105.5,319.5 Z"/></g>
<g><path style="opacity:1" fill="#fbf9fd" d="M 67.5,336.5 C 81.1917,334.452 92.6917,338.452 102,348.5C 109.637,369.381 102.47,382.215 80.5,387C 61.2975,388.418 49.9641,379.751 46.5,361C 47.0125,354.309 49.6792,348.642 54.5,344C 58.6017,340.954 62.935,338.454 67.5,336.5 Z"/></g>
<g><path style="opacity:0.986" fill="#dcdcdd" d="M 397.5,389.5 C 395.167,389.5 392.833,389.5 390.5,389.5C 389.792,380.505 389.625,371.505 390,362.5C 392.608,354.675 395.608,347.009 399,339.5C 401.828,354.736 402.162,370.069 400,385.5C 399.878,387.437 399.045,388.77 397.5,389.5 Z"/></g>
<g><path style="opacity:1" fill="#6e24c2" d="M 73.5,343.5 C 81.5385,343.061 85.3718,346.727 85,354.5C 79.2524,361.059 73.5857,361.059 68,354.5C 67.3333,352.5 67.3333,350.5 68,348.5C 69.7297,346.598 71.563,344.931 73.5,343.5 Z"/></g>
<g><path style="opacity:1" fill="#9998a3" d="M 686.5,345.5 C 692.5,345.5 698.5,345.5 704.5,345.5C 704.5,350.833 704.5,356.167 704.5,361.5C 698.5,361.5 692.5,361.5 686.5,361.5C 686.5,356.167 686.5,350.833 686.5,345.5 Z"/></g>
<g><path style="opacity:1" fill="#9998a3" d="M 769.5,345.5 C 775.5,345.5 781.5,345.5 787.5,345.5C 787.5,350.833 787.5,356.167 787.5,361.5C 781.5,361.5 775.5,361.5 769.5,361.5C 769.5,356.167 769.5,350.833 769.5,345.5 Z"/></g>
<g><path style="opacity:1" fill="#413f57" d="M 659.5,346.5 C 665.167,346.5 670.833,346.5 676.5,346.5C 676.5,351.167 676.5,355.833 676.5,360.5C 670.833,360.5 665.167,360.5 659.5,360.5C 659.5,355.833 659.5,351.167 659.5,346.5 Z"/></g>
<g><path style="opacity:1" fill="#3f3d56" d="M 687.5,346.5 C 692.833,346.5 698.167,346.5 703.5,346.5C 703.5,351.167 703.5,355.833 703.5,360.5C 698.167,360.5 692.833,360.5 687.5,360.5C 687.5,355.833 687.5,351.167 687.5,346.5 Z"/></g>
<g><path style="opacity:1" fill="#424058" d="M 714.5,346.5 C 720.167,346.5 725.833,346.5 731.5,346.5C 731.5,351.167 731.5,355.833 731.5,360.5C 725.833,360.5 720.167,360.5 714.5,360.5C 714.5,355.833 714.5,351.167 714.5,346.5 Z"/></g>
<g><path style="opacity:1" fill="#6c22c0" d="M 742.5,345.5 C 748.167,345.5 753.833,345.5 759.5,345.5C 759.5,350.5 759.5,355.5 759.5,360.5C 753.833,360.5 748.167,360.5 742.5,360.5C 742.5,355.5 742.5,350.5 742.5,345.5 Z"/></g>
<g><path style="opacity:1" fill="#3f3d56" d="M 770.5,346.5 C 775.833,346.5 781.167,346.5 786.5,346.5C 786.5,351.167 786.5,355.833 786.5,360.5C 781.167,360.5 775.833,360.5 770.5,360.5C 770.5,355.833 770.5,351.167 770.5,346.5 Z"/></g>
<g><path style="opacity:1" fill="#6b1ec1" d="M 70.5,364.5 C 77.4015,364.314 84.0681,365.48 90.5,368C 94.4592,371.236 94.1258,374.236 89.5,377C 79.917,381.977 70.5837,381.643 61.5,376C 58.141,373.966 57.8076,371.632 60.5,369C 63.8153,367.17 67.1486,365.67 70.5,364.5 Z"/></g>
<g><path style="opacity:1" fill="#92919a" d="M 376.5,366.5 C 377.889,371.269 378.556,376.269 378.5,381.5C 377.111,376.731 376.444,371.731 376.5,366.5 Z"/></g>
<g><path style="opacity:0.736" fill="#dededf" d="M 193.5,389.5 C 190.5,389.5 187.5,389.5 184.5,389.5C 184.5,388.167 184.5,386.833 184.5,385.5C 184.231,383.571 184.731,381.905 186,380.5C 188.667,382.5 191.333,384.5 194,386.5C 194.47,387.577 194.303,388.577 193.5,389.5 Z"/></g>
<g><path style="opacity:0.907" fill="#e2e1e4" d="M 147.5,401.5 C 154.167,401.5 160.833,401.5 167.5,401.5C 166.829,404.986 167.829,407.653 170.5,409.5C 116.819,411.144 63.1523,410.644 9.5,408C 6.6287,407.882 3.96203,407.216 1.5,406C 2.24382,404.961 3.24382,404.461 4.5,404.5C 52.3653,404.187 100.032,403.187 147.5,401.5 Z"/></g>
<g><path style="opacity:0.825" fill="#e2e2e2" d="M 179.5,402.5 C 185.857,402.476 192.19,402.81 198.5,403.5C 200.156,404.146 201.823,404.813 203.5,405.5C 204.849,405.154 206.183,404.821 207.5,404.5C 209.429,404.231 211.095,404.731 212.5,406C 209.956,407.092 207.289,407.759 204.5,408C 195.181,408.832 185.848,409.332 176.5,409.5C 177.869,407.268 178.869,404.934 179.5,402.5 Z"/></g>
<g><path style="opacity:0.87" fill="#e4e4e4" d="M 378.5,405.5 C 379.833,409.5 379.833,413.5 378.5,417.5C 369.806,416.998 361.139,416.164 352.5,415C 343.133,412.009 343.466,409.676 353.5,408C 361.811,406.891 370.144,406.058 378.5,405.5 Z"/></g>
<g><path style="opacity:0.902" fill="#e3e3e4" d="M 393.5,405.5 C 394.5,405.5 395.5,405.5 396.5,405.5C 398.344,407.279 399.01,409.612 398.5,412.5C 400.857,412.663 403.19,412.497 405.5,412C 407.792,409.884 409.792,407.718 411.5,405.5C 419.516,406.226 427.516,407.393 435.5,409C 438.124,409.576 438.791,410.91 437.5,413C 433.351,414.737 429.017,415.737 424.5,416C 413.527,417.118 402.527,417.618 391.5,417.5C 391.335,413.818 391.501,410.152 392,406.5C 392.383,405.944 392.883,405.611 393.5,405.5 Z"/></g>
</svg>
